<svg width="34" height="31" viewBox="0 0 34 31" fill="none" xmlns="http://www.w3.org/2000/svg">
<path fill-rule="evenodd" clip-rule="evenodd" d="M25.25 6.22852H23.8639C22.7313 3.02424 19.6754 0.728516 16.0833 0.728516H15.1667C10.1041 0.728516 6 4.83257 6 9.96016C2.8904 10.405 0.5 13.0793 0.5 16.3119C0.5 19.8557 3.37284 22.7285 6.91667 22.7285C7.42293 22.7285 7.83333 22.3181 7.83333 21.8119C7.83333 21.3056 7.42293 20.8952 6.91667 20.8952C4.38536 20.8952 2.33333 18.8432 2.33333 16.3119C2.33333 13.7805 4.38536 11.7285 6.91667 11.7285C7.42293 11.7285 7.83333 11.3181 7.83333 10.8118V9.89518C7.83333 5.84509 11.1166 2.56185 15.1667 2.56185H16.0833C19.6272 2.56185 22.5 5.43469 22.5 8.97852C22.5 9.48478 22.9104 9.89518 23.4167 9.89518C23.9229 9.89518 24.3333 9.48478 24.3333 8.97852C24.3333 8.66867 24.3163 8.36282 24.283 8.06185H25.25C28.7938 8.06185 31.6667 10.9347 31.6667 14.4785C31.6667 18.0223 28.7938 20.8952 25.25 20.8952C24.7437 20.8952 24.3333 21.3056 24.3333 21.8119C24.3333 22.3181 24.7437 22.7285 25.25 22.7285C29.8064 22.7285 33.5 19.0349 33.5 14.4785C33.5 9.92217 29.8064 6.22852 25.25 6.22852ZM16.9998 29.1452V14.8582L20.935 18.7934C21.293 19.1513 21.8734 19.1513 22.2313 18.7934C22.5893 18.4354 22.5893 17.855 22.2313 17.497L16.7313 11.997C16.3734 11.639 15.793 11.639 15.435 11.997L9.93499 17.497C9.57701 17.855 9.57701 18.4354 9.93499 18.7934C10.293 19.1513 10.8734 19.1513 11.2314 18.7934L15.1665 14.8582V29.1452C15.1665 29.6514 15.5769 30.0619 16.0832 30.0619C16.5894 30.0619 16.9998 29.6514 16.9998 29.1452Z" fill="#767676"/>
</svg>
